<svg xmlns="http://www.w3.org/2000/svg" width="2629.94" height="701.282" viewBox="0 0 2629.94 701.282">
  <defs>
    <style>
      .cls-1 {
        fill: #e4e2e2;
        fill-rule: evenodd;
      }
    </style>
  </defs>
  <path id="JR.Websites" class="cls-1" d="M1043.72,109.89V388.471q0,41.449-8.59,41.45-2.685,0-5.91-4.177V552.021q7.62,7.388,13.32,7.39,19.455,0,32.13-43.538T1087.35,405.5V109.89h-43.63Zm164.04,117.923q15.9,0,15.9,31.168,0,35.349-13.75,35.344h-3.44V407.107l21.17,141.379h45.77l-25.14-180.9q19.44-45.621,19.45-112.139,0-65.225-15.69-107.641-14.07-37.91-39.65-37.915H1156.4v438.6h43.62V227.813h7.74Zm133.09,199.055q-7.41,22.337-7.41,54.463,0,33.1,7.14,54.463,7.155,21.366,18.22,21.368,10.635,0,18.16-22.01t7.52-53.5q0-31.487-7.58-54.3t-18.1-22.813Q1348.255,404.537,1340.85,426.868ZM1567.96,109.89V395.219q0,34.7-6.44,34.7-3.45,0-4.62-7.069-1.185-7.065-1.19-27.633V109.89h-43.62V397.468q0,32.457-6.45,32.453-3.435,0-4.57-6.748t-1.12-27.954V109.89h-43.63V414.819q0,70.051,10.53,107.319t30.3,37.273q12.465,0,20.95-14.3t15.91-47.715q12.03,62.016,34.81,62.014,18.915,0,30.84-37.273t11.93-96.394V109.89h-43.63Zm168.23,170.619q-6.87,0-9.56-4.981t-2.69-17.833q0-21.846,11.28-21.849h27.83V109.89h-37.93q-21.915,0-34.01,34.7t-12.08,97.68v171.9q0,65.232,12.78,99.769,12.8,34.543,36.97,34.541h34.27V423.173h-29.33q-7.635,0-10.1-4.338t-2.47-18.154q0-12.207,2.41-17.351a8.426,8.426,0,0,1,8.22-5.141h28.48v-97.68h-24.07Zm95.91,267.977h43.63V227.492h8.06q10.845,0,10.85,22.813,0,24.747-12.03,24.741V392.005h8.38q10.95,0,10.96,21.207,0,12.531-2.69,17.512t-9.24,4.98h-7.41V548.486h8.27q13.11,0,20.84-6.747t14.51-23.778q13.86-35.665,13.86-95.752,0-78.4-23.53-108.926,16.23-36.63,16.23-91.9,0-111.5-47.39-111.5h-53.3v438.6ZM2052.87,98.965q-20.52,0-35.29,44.824T2002.8,250.626a549.027,549.027,0,0,0,9.78,102.822q6.12,32.457,6.12,42.092,0,14.782-3.81,24.581t-9.51,9.8q-4.83,0-11.07-11.889v126.92q10.32,14.458,20.85,14.459,21.915,0,37.12-44.342t15.21-108.283a479.266,479.266,0,0,0-9.03-90.611l-3.33-17.351q-3.87-20.243-3.87-33.417,0-15.423,3.55-26.348t8.49-10.925q2.58,0,7.3,4.82V107.962q-8.7-8.991-17.73-9h0Zm83.88,10.925v438.6h43.63V109.89h-43.63Zm214.11,125.956V109.89H2240.51V235.846h33.42v312.64h43.62V235.846h33.31Zm114.29,44.663q-6.885,0-9.57-4.981T2452.9,257.7q0-21.846,11.28-21.849h27.83V109.89h-37.93q-21.915,0-34.01,34.7t-12.09,97.68v171.9q0,65.232,12.79,99.769t36.96,34.541h34.28V423.173h-29.33q-7.635,0-10.1-4.338t-2.48-18.154q0-12.207,2.42-17.351a8.408,8.408,0,0,1,8.22-5.141h28.48v-97.68h-24.07ZM2612.21,98.965q-20.535,0-35.3,44.824t-14.78,106.837a549.027,549.027,0,0,0,9.78,102.822q6.135,32.457,6.13,42.092,0,14.782-3.82,24.581t-9.51,9.8q-4.83,0-11.06-11.889v126.92q10.3,14.458,20.84,14.459,21.93,0,37.13-44.342t15.2-108.283a480.054,480.054,0,0,0-9.02-90.611l-3.34-17.351q-3.855-20.243-3.86-33.417,0-15.423,3.54-26.348,3.555-10.92,8.49-10.925,2.58,0,7.31,4.82V107.962q-8.715-8.991-17.73-9h0Z" transform="translate(0 -7.031)"/>
  <path class="cls-1" d="M500.24,637.523l-182.5-2.03,33.92-88.1,116.793-2.776Z" transform="translate(0 -7.031)"/>
  <path class="cls-1" d="M234.638,635.461h352a33.181,33.181,0,0,1,33.181,33.181v6.5a33.181,33.181,0,0,1-33.181,33.181h-352a33.181,33.181,0,0,1-33.181-33.181v-6.5A33.181,33.181,0,0,1,234.638,635.461Z" transform="translate(0 -7.031)"/>
  <path class="cls-1" d="M25.717,7.019h809.8A33.181,33.181,0,0,1,868.7,40.2v6.5a33.181,33.181,0,0,1-33.181,33.181H25.717A33.181,33.181,0,0,1-7.464,46.7V40.2A33.181,33.181,0,0,1,25.717,7.019Z" transform="translate(0 -7.031)"/>
  <path class="cls-1" d="M832.178,7.019h6.571A33.181,33.181,0,0,1,871.93,40.2V509.925a33.181,33.181,0,0,1-33.181,33.18h-6.571A33.18,33.18,0,0,1,799,509.925V40.2A33.181,33.181,0,0,1,832.178,7.019Z" transform="translate(0 -7.031)"/>
  <path class="cls-1" d="M25.717,476.707h809.8A33.181,33.181,0,0,1,868.7,509.888v6.5a33.181,33.181,0,0,1-33.181,33.181H25.717A33.181,33.181,0,0,1-7.464,516.386v-6.5A33.181,33.181,0,0,1,25.717,476.707Z" transform="translate(0 -7.031)"/>
  <path class="cls-1" d="M25.717,7.019h6.571A33.181,33.181,0,0,1,65.469,40.2V509.925a33.18,33.18,0,0,1-33.181,33.18H25.717a33.18,33.18,0,0,1-33.181-33.18V40.2A33.181,33.181,0,0,1,25.717,7.019Z" transform="translate(0 -7.031)"/>
</svg>
